<svg width="106" height="106" viewBox="0 0 106 106" fill="none" xmlns="http://www.w3.org/2000/svg">
<path d="M106 81.0688H0V81.1218H106V81.0688Z" fill="#EBEBEB"/>
<path d="M16.536 83.087H11.1215V83.14H16.536V83.087Z" fill="#EBEBEB"/>
<path d="M55.968 82.5125H32.6607V82.5655H55.968V82.5125Z" fill="#EBEBEB"/>
<path d="M36.04 83.7782H20.634V83.8312H36.04V83.7782Z" fill="#EBEBEB"/>
<path d="M95.3809 84.7004H74.9759V84.7534H95.3809V84.7004Z" fill="#EBEBEB"/>
<path d="M73.087 84.7004H71.745V84.7534H73.087V84.7004Z" fill="#EBEBEB"/>
<path d="M78.6287 83.8057H63.8586V83.8587H78.6287V83.8057Z" fill="#EBEBEB"/>
<path d="M50.244 71.6136H9.30893C8.98824 71.613 8.68089 71.4853 8.45433 71.2583C8.22777 71.0313 8.10052 70.7238 8.10052 70.4031V12.8599C8.10332 12.5411 8.23179 12.2362 8.45805 12.0115C8.68431 11.7869 8.99007 11.6605 9.30893 11.66H50.244C50.5651 11.66 50.873 11.7875 51.1 12.0146C51.327 12.2416 51.4545 12.5495 51.4545 12.8705V70.4031C51.4545 70.7241 51.327 71.032 51.1 71.259C50.873 71.4861 50.5651 71.6136 50.244 71.6136ZM9.30893 11.7024C9.0023 11.703 8.70842 11.8252 8.49181 12.0422C8.27519 12.2592 8.15352 12.5533 8.15352 12.8599V70.4031C8.15352 70.7097 8.27519 71.0038 8.49181 71.2208C8.70842 71.4378 9.0023 71.56 9.30893 71.5606H50.244C50.5508 71.56 50.8449 71.4379 51.0619 71.2209C51.2788 71.004 51.401 70.7099 51.4015 70.4031V12.8599C51.401 12.5531 51.2788 12.259 51.0619 12.0421C50.8449 11.8251 50.5508 11.703 50.244 11.7024H9.30893Z" fill="#EBEBEB"/>
<path d="M96.1017 71.6136H55.1645C54.8436 71.613 54.5361 71.4853 54.3092 71.2584C54.0823 71.0315 53.9546 70.724 53.954 70.4031V12.8599C53.9573 12.5409 54.0863 12.236 54.3129 12.0114C54.5395 11.7868 54.8455 11.6605 55.1645 11.66H96.1017C96.4202 11.6611 96.7254 11.7877 96.9512 12.0123C97.177 12.2369 97.3052 12.5414 97.308 12.8599V70.4031C97.308 70.7234 97.181 71.0307 96.9549 71.2575C96.7288 71.4844 96.422 71.6125 96.1017 71.6136ZM55.1645 11.7024C54.8577 11.703 54.5636 11.8251 54.3467 12.0421C54.1297 12.259 54.0076 12.5531 54.007 12.8599V70.4031C54.0076 70.7099 54.1297 71.004 54.3467 71.2209C54.5636 71.4379 54.8577 71.56 55.1645 71.5606H96.1017C96.4085 71.56 96.7026 71.4379 96.9196 71.2209C97.1365 71.004 97.2587 70.7099 97.2592 70.4031V12.8599C97.2587 12.5531 97.1365 12.259 96.9196 12.0421C96.7026 11.8251 96.4085 11.703 96.1017 11.7024H55.1645Z" fill="#EBEBEB"/>
<path d="M89.534 81.0688H95.93V55.8981H89.534V81.0688Z" fill="#F0F0F0"/>
<path d="M89.11 55.898H95.93V54.908H89.11V55.898Z" fill="#E6E6E6"/>
<path d="M49.8878 20.3923H16.7989V81.0688H49.8878V20.3923Z" fill="#E6E6E6"/>
<path d="M46.3517 20.3923H13.2627V79.0379H46.3517V20.3923Z" fill="#F5F5F5"/>
<path d="M34.0705 24.238H27.3671L17.8504 79.0379H24.5538L34.0705 24.238Z" fill="#FAFAFA"/>
<path d="M43.106 24.238H36.4025L26.8858 79.0379H33.5914L43.106 24.238Z" fill="#FAFAFA"/>
<path d="M46.3517 20.3923H13.2627V25.6054H46.3517V20.3923Z" fill="#E0E0E0"/>
<path d="M33.3667 44.7787H32.2537V53.5109H33.3667V44.7787Z" fill="#E0E0E0"/>
<path d="M30.0192 20.3923H29.5931V79.0379H30.0192V20.3923Z" fill="#E6E6E6"/>
<path d="M27.3586 44.7787H26.2456V53.5109H27.3586V44.7787Z" fill="#E0E0E0"/>
<path d="M89.11 54.908H47.488V55.8981H89.11V54.908Z" fill="#F0F0F0"/>
<path d="M89.534 55.898H48.018V81.0688H89.534V55.898Z" fill="#F5F5F5"/>
<path d="M68.6774 81.0688H68.8767V55.8981H68.6774V81.0688Z" fill="#E6E6E6"/>
<path d="M75.118 47.5346H72.786C72.7052 47.5341 72.6278 47.5017 72.5707 47.4446C72.5136 47.3875 72.4812 47.3102 72.4807 47.2294C72.4807 47.1482 72.5128 47.0703 72.57 47.0127C72.6272 46.9552 72.7048 46.9225 72.786 46.922H75.118C75.1995 46.922 75.2777 46.9544 75.3353 47.012C75.393 47.0697 75.4254 47.1478 75.4254 47.2294C75.4248 47.3105 75.3922 47.3882 75.3346 47.4454C75.277 47.5026 75.1991 47.5346 75.118 47.5346Z" fill="#E0E0E0"/>
<path d="M83.4474 45.298H73.9053C73.691 45.298 73.5174 45.4717 73.5174 45.686V54.52C73.5174 54.7343 73.691 54.908 73.9053 54.908H83.4474C83.6617 54.908 83.8354 54.7343 83.8354 54.52V45.686C83.8354 45.4717 83.6617 45.298 83.4474 45.298Z" fill="#EBEBEB"/>
<path d="M75.5971 44.5073L73.0531 45.0225C72.9635 45.0394 72.8834 45.0893 72.8288 45.1623C72.7741 45.2353 72.7489 45.3262 72.7579 45.4169C72.767 45.5077 72.8097 45.5918 72.8777 45.6526C72.9457 45.7134 73.034 45.7465 73.1252 45.7454H84.217C84.3082 45.7465 84.3965 45.7134 84.4645 45.6526C84.5325 45.5918 84.5752 45.5077 84.5843 45.4169C84.5933 45.3262 84.568 45.2353 84.5134 45.1623C84.4587 45.0893 84.3787 45.0394 84.2891 45.0225L81.7451 44.5073C79.7163 44.0972 77.6259 44.0972 75.5971 44.5073Z" fill="#F5F5F5"/>
<path d="M84.588 47.5346H82.256C82.1752 47.5341 82.0979 47.5017 82.0407 47.4446C81.9836 47.3875 81.9513 47.3102 81.9507 47.2294C81.9507 47.1482 81.9828 47.0703 82.04 47.0127C82.0972 46.9552 82.1748 46.9225 82.256 46.922H84.588C84.6692 46.9225 84.7468 46.9552 84.804 47.0127C84.8612 47.0703 84.8933 47.1482 84.8933 47.2294C84.8927 47.3102 84.8604 47.3875 84.8033 47.4446C84.7461 47.5017 84.6688 47.5341 84.588 47.5346Z" fill="#E0E0E0"/>
<path d="M64.3886 49.2837H62.6099C62.5481 49.2837 62.4888 49.2591 62.4451 49.2154C62.4013 49.1716 62.3768 49.1123 62.3768 49.0505C62.3768 48.9886 62.4013 48.9293 62.4451 48.8856C62.4888 48.8418 62.5481 48.8173 62.6099 48.8173H64.3886C64.4505 48.8173 64.5098 48.8418 64.5535 48.8856C64.5973 48.9293 64.6218 48.9886 64.6218 49.0505C64.6218 49.1123 64.5973 49.1716 64.5535 49.2154C64.5098 49.2591 64.4505 49.2837 64.3886 49.2837Z" fill="#E0E0E0"/>
<path d="M70.7402 47.5771H63.4643C63.3004 47.5771 63.1675 47.7099 63.1675 47.8739V54.6112C63.1675 54.7751 63.3004 54.908 63.4643 54.908H70.7402C70.9041 54.908 71.037 54.7751 71.037 54.6112V47.8739C71.037 47.7099 70.9041 47.5771 70.7402 47.5771Z" fill="#EBEBEB"/>
<path d="M64.7533 46.975L62.8156 47.3672C62.7465 47.3793 62.6845 47.417 62.6422 47.4729C62.5998 47.5288 62.5801 47.5986 62.5871 47.6684C62.594 47.7382 62.6272 47.8027 62.6798 47.8491C62.7324 47.8955 62.8006 47.9202 62.8707 47.9184H71.3316C71.4018 47.9202 71.47 47.8955 71.5226 47.8491C71.5752 47.8027 71.6083 47.7382 71.6153 47.6684C71.6223 47.5986 71.6026 47.5288 71.5602 47.4729C71.5178 47.417 71.4559 47.3793 71.3868 47.3672L69.4491 46.975C67.8995 46.6613 66.3028 46.6613 64.7533 46.975Z" fill="#F5F5F5"/>
<path d="M71.6115 49.2837H69.8328C69.8022 49.2837 69.7718 49.2776 69.7436 49.2659C69.7153 49.2542 69.6896 49.237 69.6679 49.2154C69.6462 49.1937 69.6291 49.168 69.6173 49.1397C69.6056 49.1114 69.5996 49.0811 69.5996 49.0505C69.5996 49.0198 69.6056 48.9895 69.6173 48.9612C69.6291 48.9329 69.6462 48.9072 69.6679 48.8856C69.6896 48.8639 69.7153 48.8467 69.7436 48.835C69.7718 48.8233 69.8022 48.8173 69.8328 48.8173H71.6115C71.6733 48.8173 71.7326 48.8418 71.7764 48.8856C71.8201 48.9293 71.8447 48.9886 71.8447 49.0505C71.8447 49.1123 71.8201 49.1716 71.7764 49.2154C71.7326 49.2591 71.6733 49.2837 71.6115 49.2837Z" fill="#E0E0E0"/>
<path d="M85.718 30.1634H59.8942V31.7173H85.718V30.1634Z" fill="#FAFAFA"/>
<path d="M85.718 21.3654H75.6331L59.8942 30.1634H85.718V21.3654Z" fill="#F5F5F5"/>
<path d="M85.718 31.7173H94.234V30.1634H85.718V31.7173Z" fill="#EBEBEB"/>
<path d="M85.718 21.3654H88.4506L94.234 30.1634H85.718V21.3654Z" fill="#EBEBEB"/>
<path d="M81.8066 8.20865H85.718V21.3654H75.6331V14.3821C75.6331 12.7448 76.2835 11.1746 77.4413 10.0168C78.599 8.85906 80.1693 8.20865 81.8066 8.20865Z" fill="#FAFAFA"/>
<path d="M85.7201 21.3654H88.4528V8.20864H85.7201V21.3654Z" fill="#EBEBEB"/>
<path d="M53 90.6427C75.7015 90.6427 94.1047 89.5683 94.1047 88.2429C94.1047 86.9175 75.7015 85.843 53 85.843C30.2985 85.843 11.8953 86.9175 11.8953 88.2429C11.8953 89.5683 30.2985 90.6427 53 90.6427Z" fill="#F5F5F5"/>
<path d="M59.254 86.4599L57.5283 86.4748L57.2654 82.4807L58.9911 82.4637L59.254 86.4599Z" fill="#FFB573"/>
<path d="M57.435 86.284L59.3748 86.267C59.391 86.2662 59.4072 86.2685 59.4224 86.2739C59.4376 86.2793 59.4517 86.2876 59.4637 86.2985C59.4757 86.3093 59.4855 86.3224 59.4924 86.337C59.4994 86.3516 59.5033 86.3675 59.5042 86.3836L59.6123 87.9164C59.6134 87.997 59.5826 88.0748 59.5266 88.1328C59.4706 88.1907 59.394 88.2242 59.3134 88.2259C58.6371 88.2259 58.3148 88.1835 57.4626 88.192C56.9368 88.192 55.3723 88.2725 54.6472 88.2789C53.9222 88.2853 53.937 87.5708 54.2444 87.503C55.6182 87.1977 56.6549 86.7822 57.1404 86.3942C57.2239 86.3262 57.3274 86.2875 57.435 86.284Z" fill="#263238"/>
<path opacity="0.2" d="M58.9932 82.4659L57.2654 82.4828L57.4011 84.5414L59.1289 84.5244L58.9932 82.4659Z" fill="black"/>
<path d="M58.194 42.6629C58.194 42.6629 56.0528 57.8484 55.6118 62.7796C55.1285 68.1771 56.6485 84.1195 56.6485 84.1195L59.8052 83.9499C59.8052 83.9499 59.6165 69.2774 60.5854 64.0049C61.6454 58.2809 64.3611 42.6629 64.3611 42.6629H58.194Z" fill="#263238"/>
<path opacity="0.3" d="M61.762 50.1592C59.9239 53.0572 60.6553 57.8124 61.304 60.0129C61.8913 56.7354 62.6057 52.682 63.1951 49.3175C62.9407 48.7027 62.752 48.6137 61.762 50.1592Z" fill="black"/>
<path d="M59.8964 83.9838L56.5171 84.1661L56.1546 82.8878L60.0405 82.9238L59.8964 83.9838Z" fill="#00205B"/>
<path d="M56.8266 86.5829C56.9818 86.577 57.136 86.555 57.2866 86.5172C57.2941 86.5153 57.3009 86.5113 57.3061 86.5057C57.3114 86.5 57.3149 86.493 57.3163 86.4854C57.3177 86.4778 57.3168 86.4699 57.3138 86.4628C57.3108 86.4556 57.3058 86.4495 57.2994 86.4451C57.2442 86.407 56.7524 86.0784 56.5425 86.1632C56.5186 86.1728 56.4974 86.1883 56.4811 86.2084C56.4648 86.2284 56.4538 86.2522 56.4492 86.2776C56.438 86.3145 56.437 86.3536 56.4463 86.391C56.4557 86.4283 56.475 86.4624 56.5022 86.4896C56.5946 86.5607 56.7106 86.594 56.8266 86.5829ZM57.1743 86.46C56.8669 86.5236 56.64 86.5172 56.5574 86.4366C56.5401 86.4178 56.5282 86.3947 56.523 86.3697C56.5178 86.3447 56.5194 86.3188 56.5277 86.2946C56.5294 86.282 56.5344 86.27 56.5422 86.26C56.55 86.2499 56.5604 86.2421 56.5722 86.2374C56.6846 86.1907 56.9729 86.3349 57.1743 86.46Z" fill="#00205B"/>
<path d="M57.276 86.5172C57.2823 86.5191 57.2889 86.5191 57.2951 86.5172C57.3011 86.5142 57.3063 86.5097 57.31 86.5041C57.3137 86.4985 57.3159 86.4921 57.3163 86.4854C57.3163 86.4642 57.3524 85.9681 57.1764 85.8006C57.1536 85.7794 57.1264 85.7634 57.0967 85.7539C57.067 85.7444 57.0356 85.7415 57.0047 85.7455C56.9702 85.7476 56.9375 85.761 56.9114 85.7836C56.8853 85.8062 56.8674 85.8368 56.8605 85.8706C56.8224 86.0593 57.0831 86.4154 57.257 86.5172C57.2632 86.5191 57.2698 86.5191 57.276 86.5172ZM57.028 85.8197C57.0606 85.8197 57.0919 85.8327 57.1149 85.8557C57.2209 85.9533 57.2358 86.2395 57.2336 86.4027C57.0831 86.2776 56.9093 86.0041 56.9326 85.8812C56.9326 85.8579 56.9517 85.8303 57.0089 85.8218L57.028 85.8197Z" fill="#00205B"/>
<path d="M60.3861 29.7563C59.7481 30.9217 59.0402 32.0473 58.2661 33.1271C57.876 33.6677 57.4668 34.2041 57.0132 34.7235C56.5408 35.2903 56.0036 35.7997 55.4126 36.2414C55.3341 36.3007 55.2345 36.3622 55.1433 36.4195C55.0522 36.4767 54.9758 36.5127 54.891 36.5615C54.7278 36.6527 54.5624 36.7375 54.4034 36.8095C54.0791 36.9622 53.7674 37.0851 53.4452 37.2102C52.8092 37.4561 52.1732 37.6342 51.5499 37.8356C50.2955 38.195 49.0214 38.4817 47.7339 38.6942L47.3862 37.4455C48.5565 36.9579 49.7394 36.4682 50.8864 35.9615C51.4609 35.7114 52.029 35.4506 52.5718 35.1793C52.8389 35.0436 53.1081 34.9037 53.3519 34.7553C53.4812 34.6853 53.5957 34.6132 53.706 34.5433C53.7568 34.5072 53.8268 34.4691 53.865 34.4373C53.9031 34.4055 53.9434 34.38 53.99 34.3376C54.3937 33.9699 54.7614 33.5645 55.0882 33.1271C55.4486 32.6586 55.8026 32.1583 56.1482 31.6431C56.8266 30.6213 57.4902 29.5379 58.1071 28.4864L60.3861 29.7563Z" fill="#FFB573"/>
<path d="M57.3948 28.8744C56.6019 29.7097 55.9553 31.8424 53.8968 34.0705L54.8826 36.994C57.5347 35.669 60.8779 30.1761 60.8906 29.0228C60.9097 27.3013 59.2307 26.9388 57.3948 28.8744Z" fill="#00205B"/>
<path opacity="0.7" d="M57.3948 28.8744C56.6019 29.7097 55.9553 31.8424 53.8968 34.0705L54.8826 36.994C57.5347 35.669 60.8779 30.1761 60.8906 29.0228C60.9097 27.3013 59.2307 26.9388 57.3948 28.8744Z" fill="white"/>
<path opacity="0.3" d="M59.4914 30.2672C58.141 31.4756 57.4456 33.4091 56.9135 35.3764C58.0338 34.1726 59.0178 32.8488 59.8476 31.429L59.4914 30.2672Z" fill="#00205B"/>
<path d="M66.0952 86.4769H64.3696L64.1448 82.4807H65.8705L66.0952 86.4769Z" fill="#FFB573"/>
<path d="M64.2784 86.284H66.2182C66.2344 86.2834 66.2505 86.286 66.2656 86.2917C66.2807 86.2974 66.2946 86.306 66.3064 86.317C66.3182 86.328 66.3278 86.3412 66.3344 86.356C66.3411 86.3707 66.3449 86.3865 66.3454 86.4027L66.4408 87.9355C66.4408 88.0163 66.409 88.0938 66.3523 88.1513C66.2955 88.2089 66.2184 88.2417 66.1376 88.2429C65.4635 88.2301 65.1412 88.192 64.2869 88.192C63.7632 88.192 62.4467 88.245 61.7238 88.245C61.0009 88.245 61.02 87.5305 61.3252 87.4648C62.7032 87.1744 63.494 86.7737 63.9816 86.39C64.066 86.3226 64.1704 86.2853 64.2784 86.284Z" fill="#263238"/>
<path opacity="0.2" d="M65.8726 82.4807H64.1448L64.2614 84.5414H65.9871L65.8726 82.4807Z" fill="black"/>
<path d="M61.5648 42.576C61.5648 42.576 61.3994 55.7645 61.6793 60.7062C61.9867 66.1186 63.5216 84.0453 63.5216 84.0453H66.6825C66.6825 84.0453 66.5892 66.5553 66.7779 61.198C66.9899 55.3829 67.2019 42.576 67.2019 42.576H61.5648Z" fill="#263238"/>
<path d="M66.8097 84.0453H63.3944L63.2036 82.8453L66.975 83.0319L66.8097 84.0453Z" fill="#00205B"/>
<path d="M63.6678 86.5787C63.8229 86.574 63.9771 86.5534 64.1279 86.5172C64.1354 86.5153 64.1421 86.5113 64.1474 86.5056C64.1526 86.5 64.1562 86.493 64.1576 86.4854C64.1589 86.4778 64.158 86.4699 64.155 86.4628C64.152 86.4556 64.147 86.4495 64.1406 86.4451C64.0855 86.407 63.5979 86.072 63.3859 86.1547C63.3619 86.1643 63.3408 86.1799 63.3245 86.1999C63.3082 86.2199 63.2972 86.2437 63.2926 86.2692C63.2826 86.3059 63.282 86.3446 63.2909 86.3817C63.2998 86.4187 63.3179 86.4529 63.3435 86.4812C63.4356 86.5532 63.5513 86.588 63.6678 86.5787ZM64.0176 86.4578C63.7081 86.5193 63.4813 86.5108 63.4007 86.4303C63.3837 86.4109 63.372 86.3874 63.3667 86.3621C63.3615 86.3369 63.363 86.3107 63.371 86.2861C63.3729 86.2736 63.378 86.2617 63.3858 86.2517C63.3936 86.2417 63.4039 86.2338 63.4156 86.2289C63.53 86.1844 63.812 86.3306 64.024 86.4578H64.0176Z" fill="#00205B"/>
<path d="M64.1173 86.5172H64.1364C64.1424 86.5142 64.1475 86.5097 64.1512 86.5041C64.1549 86.4985 64.1571 86.4921 64.1576 86.4854C64.1576 86.4642 64.1978 85.9681 64.024 85.8006C64.0024 85.7782 63.9757 85.7613 63.9462 85.7514C63.9166 85.7414 63.8852 85.7387 63.8544 85.7434C63.8201 85.7444 63.7871 85.7569 63.7606 85.7787C63.7341 85.8006 63.7156 85.8307 63.7081 85.8642C63.6678 86.0529 63.9201 86.4133 64.0982 86.5172H64.1173ZM63.882 85.8176C63.9146 85.8176 63.9458 85.8306 63.9689 85.8536C64.0647 86.0189 64.1042 86.2109 64.0812 86.4006C63.9328 86.2755 63.7611 86.002 63.7866 85.8769C63.7866 85.8536 63.8056 85.8261 63.8629 85.8197L63.882 85.8176Z" fill="#00205B"/>
<path d="M47.6809 37.3268L45.6966 37.4646L46.4386 39.2264C46.4386 39.2264 48.2788 38.8024 48.2618 38.2088L47.6809 37.3268Z" fill="#FFB573"/>
<path d="M45.0839 39.0334L45.5715 39.4574C45.6551 39.5324 45.7635 39.5738 45.8757 39.5738C45.988 39.5738 46.0964 39.5324 46.18 39.4574L46.4386 39.2263L45.6966 37.4646L45.0118 38.425C44.9466 38.5174 44.9178 38.6307 44.9311 38.743C44.9444 38.8554 44.9989 38.9588 45.0839 39.0334Z" fill="#FFB573"/>
<path d="M44.9737 36.7608L44.6133 37.1742L50.9733 45.6054H51.3973L44.9737 36.7608ZM45.1857 37.736L44.8401 37.276L45.0309 37.064L45.3595 37.5155L45.1857 37.736Z" fill="#263238"/>
<path d="M56.8987 48.902L67.5199 49.538C67.5856 48.7134 67.3778 40.4093 67.5199 36.994C67.6174 34.7002 67.7828 30.8248 68.3573 28.213C68.3733 28.1411 68.3746 28.0668 68.3611 27.9945C68.3476 27.9222 68.3197 27.8533 68.2788 27.7921C68.238 27.7309 68.1852 27.6786 68.1237 27.6383C68.0621 27.5981 67.993 27.5707 67.9206 27.5579C67.7552 27.5303 67.5602 27.4985 67.346 27.4688C66.7885 27.3862 66.091 27.3035 65.4062 27.2696C64.0993 27.1953 62.7891 27.1953 61.4821 27.2696C60.88 27.3268 60.2907 27.4264 59.82 27.5176C59.625 27.5558 59.4575 27.5939 59.3176 27.6257C59.1817 27.6586 59.0576 27.7289 58.9595 27.8285C58.8613 27.9281 58.793 28.0532 58.7622 28.1896C58.3127 30.2248 56.5383 38.9444 56.8987 48.902Z" fill="#00205B"/>
<path opacity="0.7" d="M56.8987 48.902L67.5199 49.538C67.5856 48.7134 67.3778 40.4093 67.5199 36.994C67.6174 34.7002 67.7828 30.8248 68.3573 28.213C68.3733 28.1411 68.3746 28.0668 68.3611 27.9945C68.3476 27.9222 68.3197 27.8533 68.2788 27.7921C68.238 27.7309 68.1852 27.6786 68.1237 27.6383C68.0621 27.5981 67.993 27.5707 67.9206 27.5579C67.7552 27.5303 67.5602 27.4985 67.346 27.4688C66.7885 27.3862 66.091 27.3035 65.4062 27.2696C64.0993 27.1953 62.7891 27.1953 61.4821 27.2696C60.88 27.3268 60.2907 27.4264 59.82 27.5176C59.625 27.5558 59.4575 27.5939 59.3176 27.6257C59.1817 27.6586 59.0576 27.7289 58.9595 27.8285C58.8613 27.9281 58.793 28.0532 58.7622 28.1896C58.3127 30.2248 56.5383 38.9444 56.8987 48.902Z" fill="white"/>
<path d="M69.0187 28.7599C69.2307 29.0758 69.3961 29.362 69.5699 29.6673C69.7438 29.9726 69.907 30.2736 70.0681 30.5789C70.384 31.1958 70.6808 31.8254 70.9437 32.4742C71.2133 33.1289 71.4475 33.7977 71.6454 34.4776C71.7366 34.8274 71.8277 35.175 71.8934 35.5376L71.921 35.6711L71.9358 35.739V35.7792L71.9486 35.8598C71.975 36.0504 71.975 36.2437 71.9486 36.4343C71.9069 36.7138 71.8233 36.9854 71.7005 37.2399C71.514 37.6181 71.285 37.9737 71.0179 38.2999C70.7783 38.5946 70.5324 38.8638 70.2801 39.1182C69.7884 39.6034 69.2711 40.062 68.7304 40.492C67.6713 41.347 66.5558 42.1297 65.3914 42.8346L64.624 41.7916C65.5822 40.9096 66.532 39.9938 67.4372 39.0737C67.8824 38.6073 68.3212 38.143 68.7092 37.6618C68.9042 37.4244 69.0887 37.1869 69.2477 36.9516C69.3889 36.7492 69.5069 36.5316 69.5996 36.3029C69.6216 36.2565 69.6332 36.2058 69.6335 36.1545C69.6269 36.1809 69.6269 36.2086 69.6335 36.235V36.252C69.6335 36.252 69.6335 36.2393 69.6335 36.2329L69.6166 36.1778L69.5848 36.0718C69.5084 35.7856 69.4067 35.4994 69.3092 35.2132C69.0972 34.6366 68.8534 34.0642 68.5926 33.4939C68.3318 32.9236 68.0435 32.3576 67.7446 31.7979C67.6033 31.5152 67.4513 31.2361 67.2888 30.9605L66.8224 30.1549L69.0187 28.7599Z" fill="#FFB573"/>
<path opacity="0.3" d="M66.638 31.2997C66.4005 32.6862 67.274 34.8231 67.5856 35.5397C67.628 34.6662 67.6831 33.691 67.7616 32.6989L66.638 31.2997Z" fill="#00205B"/>
<path d="M67.7488 27.5261C65.9914 27.3967 65.4168 29.9174 65.8663 31.3018C66.2394 32.4614 67.681 33.6338 68.9869 36.1015L72.2517 35.6478C71.2808 31.5477 69.5212 27.6554 67.7488 27.5261Z" fill="#00205B"/>
<path opacity="0.7" d="M67.7488 27.5261C65.9914 27.3967 65.4168 29.9174 65.8663 31.3018C66.2394 32.4614 67.681 33.6338 68.9869 36.1015L72.2517 35.6478C71.2808 31.5477 69.5212 27.6554 67.7488 27.5261Z" fill="white"/>
<path d="M64.448 41.976L63.4622 44.0069L65.6182 43.708C65.6182 43.708 66.0422 42.1986 65.2451 42.0438L64.978 41.8467C64.9361 41.8159 64.8879 41.7947 64.837 41.7845C64.786 41.7744 64.7334 41.7755 64.6829 41.7878C64.6323 41.8001 64.5851 41.8234 64.5446 41.8559C64.504 41.8884 64.471 41.9294 64.448 41.976Z" fill="#FFB573"/>
<path d="M48.2236 46.1206H47.2166C47.1227 46.1206 47.0327 46.0833 46.9663 46.0169C46.8999 45.9505 46.8626 45.8604 46.8626 45.7665C46.8632 45.6728 46.9006 45.5831 46.9669 45.5168C47.0332 45.4505 47.1229 45.4131 47.2166 45.4125H48.2236C48.3172 45.4136 48.4066 45.4513 48.4728 45.5174C48.5389 45.5836 48.5766 45.673 48.5777 45.7665C48.5771 45.8603 48.5396 45.95 48.4734 46.0163C48.4071 46.0825 48.3174 46.12 48.2236 46.1206Z" fill="#00205B"/>
<path d="M54.7172 45.3553L53.8692 45.8959C53.83 45.921 53.7862 45.9381 53.7403 45.9463C53.6944 45.9545 53.6474 45.9535 53.6019 45.9435C53.5564 45.9334 53.5133 45.9145 53.4752 45.8878C53.437 45.861 53.4045 45.8271 53.3795 45.7877C53.3299 45.7085 53.3135 45.613 53.3337 45.5218C53.354 45.4306 53.4092 45.351 53.4876 45.3001L54.3356 44.7574C54.4148 44.7079 54.5103 44.6915 54.6015 44.7117C54.6927 44.7319 54.7723 44.7872 54.8232 44.8655C54.8736 44.9447 54.8907 45.0405 54.8709 45.1322C54.851 45.2239 54.7958 45.3041 54.7172 45.3553Z" fill="#00205B"/>
<path d="M49.7013 45.9531C47.7933 45.9531 47.3354 45.1051 47.3163 45.0648L47.3672 45.0373C47.3672 45.0479 47.8357 45.8959 49.6992 45.8959H49.9112C51.0136 45.8598 51.6368 45.3871 52.188 44.9715C52.6862 44.5942 53.1187 44.2698 53.7886 44.3355C53.9675 44.3356 54.1444 44.3734 54.3077 44.4465C54.471 44.5195 54.617 44.6262 54.7363 44.7595C54.8896 44.972 54.9528 45.2364 54.9122 45.4952L54.8571 45.4846C54.8935 45.2415 54.8342 44.9938 54.6918 44.7935C54.5781 44.6648 54.4385 44.5616 54.2821 44.4907C54.1257 44.4198 53.9561 44.3828 53.7844 44.3822C53.1357 44.3271 52.7117 44.6472 52.222 45.0182C51.6644 45.4422 51.0348 45.9171 49.9133 45.9531H49.7013Z" fill="#00205B"/>
<path d="M46.0973 46.3707C46.0973 46.3707 45.7051 45.3849 46.5107 45.05C46.9347 44.8719 47.3036 45.1327 47.7318 45.4358C48.16 45.739 48.6985 46.1227 49.3981 46.0252C51.3061 45.7623 51.3549 44.1575 51.3549 44.1405H51.41C51.41 44.1575 51.3549 45.8111 49.4066 46.0803C48.6837 46.1799 48.16 45.8089 47.6979 45.4825C47.2739 45.1899 46.9283 44.9355 46.5319 45.1009C45.7793 45.4146 46.1333 46.3114 46.1482 46.3495L46.0973 46.3707Z" fill="#00205B"/>
<path d="M53.1187 44.6514L52.5612 44.944C52.5358 44.9589 52.5077 44.9684 52.4785 44.9719C52.4493 44.9753 52.4198 44.9727 52.3917 44.9641C52.3635 44.9556 52.3375 44.9412 52.3152 44.9221C52.293 44.9029 52.2749 44.8793 52.2622 44.8528C52.2473 44.8275 52.2378 44.7994 52.2343 44.7702C52.2309 44.741 52.2335 44.7114 52.2421 44.6833C52.2507 44.6552 52.265 44.6292 52.2841 44.6069C52.3033 44.5846 52.3269 44.5666 52.3534 44.5539L52.911 44.2571C52.9364 44.2422 52.9647 44.2329 52.9939 44.2295C53.0232 44.2262 53.0529 44.229 53.081 44.2378C53.1091 44.2466 53.1351 44.2611 53.1573 44.2805C53.1795 44.2999 53.1974 44.3237 53.2099 44.3504C53.2252 44.3758 53.235 44.4041 53.2386 44.4335C53.2423 44.4629 53.2397 44.4928 53.2311 44.5211C53.2226 44.5495 53.2081 44.5758 53.1887 44.5982C53.1694 44.6206 53.1455 44.6388 53.1187 44.6514Z" fill="#00205B"/>
<path d="M56.816 45.457L55.8684 45.1305C55.7816 45.0985 55.7108 45.0337 55.6712 44.9501C55.6316 44.8665 55.6262 44.7707 55.6564 44.6832C55.6889 44.5963 55.7541 44.5255 55.838 44.4859C55.9219 44.4463 56.018 44.441 56.1058 44.4712L57.0513 44.7977C57.1381 44.8298 57.2089 44.8945 57.2485 44.9781C57.2881 45.0617 57.2934 45.1575 57.2633 45.245C57.2317 45.3321 57.167 45.4033 57.0832 45.443C56.9995 45.4826 56.9035 45.4877 56.816 45.457Z" fill="#00205B"/>
<path d="M57.8527 46.2457L47.0068 47.2103C46.7555 47.2333 46.5052 47.1573 46.3093 46.9983L44.9716 45.9107L59.625 44.6048L58.5014 45.9128C58.3359 46.103 58.1036 46.2221 57.8527 46.2457Z" fill="#263238"/>
<path d="M58.3763 44.9927L66.886 44.1999L67.4923 44.6832L66.604 44.8783L66.3666 44.6345L58.3445 45.3277L58.3763 44.9927Z" fill="#263238"/>
<path d="M64.1766 45.0648L65.1646 45.2069C65.2308 45.2161 65.2983 45.2105 65.3621 45.1905C65.426 45.1704 65.4845 45.1365 65.5336 45.091C65.5827 45.0456 65.6211 44.9898 65.646 44.9277C65.6709 44.8656 65.6817 44.7988 65.6776 44.732L65.6182 43.708L63.4622 44.007L63.7548 44.7299C63.7891 44.8181 63.8463 44.8956 63.9204 44.9544C63.9945 45.0133 64.083 45.0514 64.1766 45.0648Z" fill="#FFB573"/>
<path d="M64.0855 28.6666C63.7151 28.6901 63.3488 28.5778 63.0552 28.3507C62.9691 28.2755 62.9014 28.1815 62.8573 28.0761C62.8132 27.9706 62.7939 27.8564 62.8008 27.7423C62.8004 27.7363 62.8013 27.7302 62.8036 27.7246C62.8059 27.719 62.8094 27.7139 62.8139 27.7099C62.8183 27.7058 62.8237 27.7028 62.8295 27.7011C62.8353 27.6993 62.8414 27.6989 62.8474 27.6999C62.8534 27.7002 62.8594 27.7017 62.8648 27.7043C62.8703 27.7069 62.8751 27.7106 62.8791 27.7152C62.883 27.7197 62.8861 27.7251 62.8879 27.7308C62.8897 27.7366 62.8904 27.7426 62.8898 27.7487C62.8823 27.8491 62.8987 27.95 62.9378 28.0429C62.9768 28.1358 63.0374 28.218 63.1145 28.2829C63.4177 28.5564 63.9625 28.6433 64.6261 28.5288C64.9576 28.4779 65.2638 28.3215 65.4994 28.0828C65.735 27.8441 65.8874 27.5359 65.9341 27.2038C65.9346 27.198 65.9363 27.1924 65.9391 27.1873C65.9419 27.1822 65.9457 27.1777 65.9502 27.1742C65.9548 27.1706 65.9601 27.168 65.9657 27.1665C65.9713 27.1651 65.9771 27.1648 65.9829 27.1657C65.9887 27.1662 65.9944 27.1679 65.9996 27.1706C66.0048 27.1734 66.0094 27.1771 66.0132 27.1816C66.0169 27.1862 66.0197 27.1914 66.0215 27.197C66.0232 27.2027 66.0237 27.2086 66.0232 27.2144C65.9703 27.5643 65.8081 27.8884 65.5598 28.1405C65.3116 28.3926 64.9899 28.5597 64.6409 28.6179C64.4574 28.6489 64.2716 28.6652 64.0855 28.6666Z" fill="#263238"/>
<path d="M59.6801 48.336C59.6683 48.336 59.657 48.3313 59.6486 48.323C59.6403 48.3146 59.6356 48.3033 59.6356 48.2915C59.6102 43.3413 60.049 32.6819 60.6002 29.8644C60.603 29.8538 60.6089 29.8442 60.6172 29.8369C61.5436 29.1479 62.4234 28.4228 62.4319 28.4165C62.436 28.4122 62.441 28.4089 62.4464 28.4066C62.4519 28.4043 62.4578 28.4031 62.4637 28.4031C62.4696 28.4031 62.4755 28.4043 62.4809 28.4066C62.4864 28.4089 62.4913 28.4122 62.4955 28.4165C62.5034 28.4247 62.5078 28.4358 62.5078 28.4472C62.5078 28.4587 62.5034 28.4697 62.4955 28.4779C62.4955 28.4779 61.6136 29.2051 60.6914 29.892C60.1423 32.7307 59.7056 43.3476 59.731 48.283C59.731 48.295 59.7264 48.3066 59.7181 48.3152C59.7098 48.3239 59.6985 48.3291 59.6865 48.3296L59.6801 48.336Z" fill="#263238"/>
<path d="M61.6432 31.1301C61.6114 31.3802 61.4694 31.5689 61.3252 31.5541C61.1811 31.5392 61.0857 31.3187 61.1132 31.0686C61.1408 30.8184 61.285 30.6297 61.4312 30.6446C61.5775 30.6594 61.6729 30.8799 61.6432 31.1301Z" fill="#263238"/>
<path d="M63.159 31.1301C63.1294 31.3802 62.9873 31.5689 62.841 31.5541C62.6948 31.5392 62.6015 31.3187 62.629 31.0686C62.6566 30.8184 62.8029 30.6297 62.947 30.6446C63.0912 30.6594 63.1887 30.8799 63.159 31.1301Z" fill="#263238"/>
<path d="M61.374 34.8062C61.3422 35.0563 61.2002 35.245 61.056 35.2302C60.9118 35.2153 60.8164 34.9948 60.844 34.7447C60.8716 34.4945 61.0157 34.3058 61.162 34.3207C61.3083 34.3355 61.4037 34.556 61.374 34.8062Z" fill="#263238"/>
<path d="M62.8898 34.8062C62.8601 35.0563 62.7181 35.245 62.5718 35.2302C62.4255 35.2153 62.3322 34.9948 62.3598 34.7447C62.3874 34.4945 62.5336 34.3058 62.6778 34.3207C62.822 34.3355 62.9195 34.556 62.8898 34.8062Z" fill="#263238"/>
<path d="M61.056 38.8617C61.0263 39.1119 60.8843 39.3006 60.738 39.2857C60.5917 39.2709 60.4984 39.0525 60.526 38.8024C60.5536 38.5522 60.6998 38.3635 60.844 38.3784C60.9882 38.3932 61.0878 38.6116 61.056 38.8617Z" fill="#263238"/>
<path d="M62.576 38.8617C62.5442 39.1119 62.4022 39.3006 62.2559 39.2857C62.1096 39.2709 62.0185 39.0525 62.0439 38.8024C62.0694 38.5522 62.2156 38.3635 62.3619 38.3784C62.5082 38.3932 62.6057 38.6116 62.576 38.8617Z" fill="#263238"/>
<path d="M60.844 43.3815C60.8143 43.6317 60.6723 43.8204 60.526 43.8055C60.3797 43.7907 60.2886 43.5702 60.314 43.3201C60.3394 43.0699 60.4857 42.8812 60.632 42.8961C60.7783 42.9109 60.8758 43.1314 60.844 43.3815Z" fill="#263238"/>
<path d="M62.3619 43.3815C62.3322 43.6317 62.1902 43.8204 62.0439 43.8055C61.8976 43.7907 61.8044 43.5702 61.8319 43.3201C61.8595 43.0699 62.0036 42.8812 62.1499 42.8961C62.2962 42.9109 62.3916 43.1314 62.3619 43.3815Z" fill="#263238"/>
<path d="M61.798 28.4334C61.6742 28.4346 61.5516 28.4091 61.4385 28.3586C61.3255 28.3082 61.2246 28.2339 61.1429 28.1409C60.8143 27.772 61.3549 27.2081 61.3719 27.1847C61.3758 27.1806 61.3806 27.1772 61.3859 27.175C61.3912 27.1727 61.3969 27.1715 61.4026 27.1715C61.4084 27.1715 61.4141 27.1727 61.4193 27.175C61.4246 27.1772 61.4294 27.1806 61.4334 27.1847C61.4376 27.1889 61.4409 27.1938 61.4432 27.1993C61.4455 27.2047 61.4467 27.2106 61.4467 27.2165C61.4467 27.2225 61.4455 27.2283 61.4432 27.2338C61.4409 27.2392 61.4376 27.2442 61.4334 27.2483C61.4334 27.2483 60.933 27.7762 61.2086 28.0836C61.3038 28.1907 61.4262 28.27 61.5628 28.3129C61.6995 28.3559 61.8453 28.3609 61.9846 28.3274C62.1564 28.2967 62.319 28.2271 62.4597 28.1238C62.6005 28.0206 62.7157 27.8864 62.7965 27.7317C62.8008 27.7208 62.8092 27.712 62.8199 27.7072C62.8306 27.7024 62.8428 27.7021 62.8538 27.7063C62.8593 27.7079 62.8644 27.7107 62.8688 27.7144C62.8732 27.7181 62.8768 27.7227 62.8794 27.7279C62.882 27.733 62.8835 27.7387 62.8838 27.7444C62.8841 27.7502 62.8833 27.756 62.8813 27.7614C62.7942 27.9301 62.6696 28.0767 62.5171 28.1899C62.3646 28.3031 62.1883 28.3798 62.0015 28.4143C61.9345 28.4277 61.8663 28.434 61.798 28.4334Z" fill="#263238"/>
<path d="M61.6708 27.2526C62.8114 26.9812 63.0128 26.2774 62.9428 25.5015C62.9245 25.3075 62.8941 25.1149 62.8516 24.9248L64.2805 23.7376L65.3299 22.8663C65.0395 24.1383 64.7109 26.4321 65.5652 27.2759C65.5652 27.2759 64.6812 28.0243 62.8516 27.9395C61.3613 27.8695 61.6708 27.2526 61.6708 27.2526Z" fill="#FFB573"/>
<path opacity="0.2" d="M62.8453 24.9248C62.8877 25.115 62.9182 25.3075 62.9364 25.5015C63.4686 25.3934 64.1809 24.8252 64.2551 24.2804C64.2817 24.1007 64.2881 23.9187 64.2742 23.7376L62.8453 24.9248Z" fill="black"/>
<path d="M65.756 21.0474C65.3914 22.7264 65.2642 23.7249 64.272 24.4902C63.9524 24.7397 63.5709 24.8975 63.1684 24.9468C62.7659 24.996 62.3576 24.9347 61.9872 24.7696C61.6169 24.6045 61.2984 24.3417 61.0661 24.0094C60.8337 23.6771 60.6961 23.2878 60.668 22.8833C60.5387 21.3208 61.1578 18.8383 62.9237 18.3634C63.3027 18.2525 63.7041 18.2428 64.088 18.3354C64.4718 18.4281 64.8246 18.6198 65.1113 18.8914C65.3979 19.163 65.6083 19.505 65.7214 19.8833C65.8345 20.2616 65.8465 20.663 65.756 21.0474Z" fill="#FFB573"/>
<path d="M61.6772 22.6289C61.7917 22.5195 61.9428 22.4567 62.1012 22.4529C62.2533 22.4555 62.4027 22.4933 62.5379 22.5632C62.6714 22.6268 62.7902 22.72 62.9174 22.7073C63.0446 22.6946 63.0721 22.4953 62.9619 22.4381L62.9873 22.3893C63.0241 22.4101 63.0538 22.4413 63.0727 22.4791C63.0916 22.5169 63.0988 22.5594 63.0933 22.6013C63.0871 22.644 63.0695 22.6843 63.0424 22.7179C63.0111 22.7483 62.9711 22.7683 62.928 22.7752C62.7765 22.768 62.6299 22.7196 62.504 22.6352C62.3798 22.575 62.2434 22.5445 62.1054 22.5462C61.9715 22.5523 61.8449 22.6092 61.7514 22.7052L61.6772 22.6289Z" fill="#263238"/>
<path d="M61.3316 22.684C61.3102 22.6424 61.2802 22.6058 61.2437 22.5766C61.2072 22.5474 61.1649 22.5262 61.1196 22.5144C61.0253 22.5111 60.9332 22.5428 60.861 22.6034C60.8128 22.6424 60.7533 22.6647 60.6914 22.667C60.659 22.6638 60.628 22.6524 60.6013 22.6339C60.5745 22.6153 60.553 22.5902 60.5387 22.561C60.512 22.5087 60.5002 22.45 60.5048 22.3914C60.5058 22.3598 60.5153 22.329 60.5324 22.3024C60.5415 22.287 60.5545 22.2744 60.5702 22.2658C60.5859 22.2572 60.6036 22.253 60.6214 22.2536V22.3066C60.5875 22.3066 60.5684 22.3469 60.5663 22.3935C60.5644 22.4404 60.5762 22.4868 60.6002 22.5271C60.6088 22.5456 60.6222 22.5614 60.639 22.5729C60.6557 22.5845 60.6753 22.5913 60.6956 22.5928C60.7397 22.588 60.7813 22.5695 60.8143 22.5398C60.9016 22.4603 61.0164 22.4177 61.1344 22.4211C61.1939 22.4341 61.2499 22.4598 61.2985 22.4964C61.3472 22.533 61.3874 22.5796 61.4164 22.6331L61.3316 22.684Z" fill="#263238"/>
<path d="M64.607 19.5718C63.6975 19.8792 62.0058 19.6672 61.338 19.7457C61.3172 19.7481 61.2962 19.7448 61.2771 19.7362C61.2581 19.7275 61.2418 19.7138 61.23 19.6966C61.2182 19.6793 61.2114 19.6592 61.2102 19.6383C61.2091 19.6174 61.2137 19.5966 61.2235 19.5782C61.5966 18.8341 61.9188 18.3804 62.2835 18.143C62.61 17.931 64.5137 17.3988 65.8536 18.5945C67.1934 19.7902 66.1567 22.1985 66.1567 22.1985L65.0183 22.224C64.9725 22.2255 64.9272 22.215 64.8869 22.1933C64.8465 22.1717 64.8127 22.1397 64.7888 22.1007C64.7648 22.0617 64.7517 22.017 64.7507 21.9712C64.7497 21.9255 64.7608 21.8803 64.783 21.8402C64.995 21.4607 65.2557 20.8989 65.207 20.5682C64.9167 20.2995 64.7087 19.954 64.607 19.5718Z" fill="#263238"/>
<path d="M61.48 19.2263C63.034 19.4595 65.349 20.6933 66.356 22.0226C66.4069 22.0883 66.5002 22.0226 66.5298 21.8996L67.3418 18.5542C67.3512 18.5274 67.3539 18.4986 67.3494 18.4705C67.345 18.4423 67.3336 18.4158 67.3164 18.3931C66.0952 17.225 64.8784 16.4003 63.0764 16.1035C63.0403 16.1035 62.9958 16.129 62.9661 16.1841L61.4588 18.9825C61.3846 19.08 61.4016 19.2157 61.48 19.2263Z" fill="#00205B"/>
<path opacity="0.7" d="M61.48 19.2263C63.034 19.4595 65.349 20.6933 66.356 22.0226C66.4069 22.0883 66.5002 22.0226 66.5298 21.8996L67.3418 18.5542C67.3512 18.5274 67.3539 18.4986 67.3494 18.4705C67.345 18.4423 67.3336 18.4158 67.3164 18.3931C66.0952 17.225 64.8784 16.4003 63.0764 16.1035C63.0403 16.1035 62.9958 16.129 62.9661 16.1841L61.4588 18.9825C61.3846 19.08 61.4016 19.2157 61.48 19.2263Z" fill="white"/>
<path opacity="0.2" d="M67.3015 18.391C66.0804 17.225 64.8635 16.4003 63.0615 16.1035C63.0234 16.1035 62.9831 16.129 62.9513 16.1841L61.9316 18.0751C63.0149 18.5606 65.1858 18.586 66.0316 18.5924C66.4387 19.1542 66.8139 19.4404 67.1044 19.4764L67.3291 18.5542C67.3382 18.5269 67.3405 18.4976 67.3357 18.4692C67.3309 18.4407 67.3192 18.4139 67.3015 18.391Z" fill="#00205B"/>
<path d="M66.1758 18.4694C64.9971 18.3655 61.4058 18.02 61.1768 16.8794C60.9034 15.5247 61.9655 14.7891 63.2205 14.787C65.2112 14.787 67.6471 16.2307 68.1177 17.8504C68.6244 19.6036 67.3927 20.2227 66.1758 18.4694Z" fill="#00205B"/>
<path opacity="0.7" d="M66.1758 18.4694C64.9971 18.3655 61.4058 18.02 61.1768 16.8794C60.9034 15.5247 61.9655 14.7891 63.2205 14.787C65.2112 14.787 67.6471 16.2307 68.1177 17.8504C68.6244 19.6036 67.3927 20.2227 66.1758 18.4694Z" fill="white"/>
<path d="M66.144 22.7985C65.8742 23.126 65.4999 23.3505 65.084 23.4345C64.5561 23.5256 64.4374 23.0338 64.7045 22.561C64.9483 22.137 65.5144 21.5731 65.9871 21.6982C66.4599 21.8233 66.4874 22.3872 66.144 22.7985Z" fill="#FFB573"/>
<path d="M63.1612 21.3653C63.14 21.5031 63.0488 21.6049 62.9598 21.5943C62.8707 21.5837 62.8135 21.4629 62.8347 21.3251C62.8559 21.1873 62.9449 21.0855 63.0361 21.0961C63.1272 21.1067 63.176 21.2275 63.1612 21.3653Z" fill="#263238"/>
<path d="M61.5203 21.1788C61.4991 21.3166 61.41 21.4205 61.3189 21.4078C61.2277 21.395 61.1726 21.2784 61.1938 21.1406C61.215 21.0028 61.3062 20.899 61.4058 20.9096C61.5054 20.9202 61.5415 21.041 61.5203 21.1788Z" fill="#263238"/>
<path d="M61.9549 21.0919C61.7226 21.4942 61.4374 21.8635 61.1069 22.19C61.3189 22.4465 61.7429 22.402 61.7429 22.402L61.9549 21.0919Z" fill="#ED893E"/>
<path d="M62.4764 23.32C62.638 23.3221 62.7983 23.2914 62.9477 23.2299C63.0971 23.1683 63.2324 23.0771 63.3456 22.9617C63.3526 22.9536 63.3561 22.9429 63.3553 22.9322C63.3545 22.9215 63.3495 22.9115 63.3414 22.9045C63.3332 22.8974 63.3226 22.8939 63.3119 22.8947C63.3011 22.8955 63.2912 22.9006 63.2841 22.9087C63.1594 23.0323 63.0079 23.1254 62.8413 23.1809C62.6748 23.2364 62.4977 23.2528 62.3238 23.2288C62.3185 23.2282 62.3131 23.2287 62.308 23.2302C62.3029 23.2317 62.2981 23.2342 62.294 23.2376C62.2898 23.2409 62.2864 23.245 62.2839 23.2497C62.2813 23.2544 62.2798 23.2596 62.2792 23.2649C62.2783 23.2702 62.2786 23.2757 62.2799 23.2809C62.2813 23.2862 62.2838 23.2911 62.2872 23.2953C62.2906 23.2995 62.2949 23.3029 62.2997 23.3054C62.3046 23.3078 62.3099 23.3092 62.3153 23.3094C62.3686 23.3171 62.4225 23.3206 62.4764 23.32Z" fill="#263238"/>
<path d="M63.6 20.8756C63.6132 20.8787 63.627 20.8787 63.6403 20.8756C63.6604 20.8676 63.6765 20.852 63.6853 20.8321C63.694 20.8123 63.6946 20.7899 63.6869 20.7696C63.6417 20.6489 63.5673 20.5412 63.4704 20.4561C63.3735 20.371 63.2571 20.3112 63.1315 20.282C63.1209 20.2799 63.11 20.2799 63.0994 20.2821C63.0888 20.2842 63.0787 20.2885 63.0698 20.2946C63.0609 20.3008 63.0534 20.3086 63.0476 20.3178C63.0418 20.3269 63.0379 20.3371 63.0361 20.3477C63.033 20.3693 63.0383 20.3913 63.0509 20.409C63.0635 20.4268 63.0825 20.439 63.1039 20.4431C63.2007 20.4687 63.2898 20.5174 63.3637 20.5849C63.4375 20.6525 63.4939 20.737 63.5279 20.8311C63.5348 20.8443 63.5451 20.8555 63.5578 20.8633C63.5705 20.8711 63.5851 20.8754 63.6 20.8756Z" fill="#263238"/>
<path d="M60.9521 20.3795C60.965 20.3839 60.9789 20.3848 60.9923 20.3822C61.0056 20.3796 61.0181 20.3736 61.0284 20.3647C61.1072 20.2957 61.2007 20.2457 61.3017 20.2185C61.4028 20.1913 61.5087 20.1877 61.6114 20.2078C61.632 20.2137 61.654 20.2112 61.6727 20.2009C61.6914 20.1905 61.7052 20.1732 61.7111 20.1527C61.717 20.1319 61.7146 20.1096 61.7043 20.0906C61.694 20.0715 61.6766 20.0573 61.656 20.0509C61.5274 20.0234 61.3943 20.0261 61.267 20.0588C61.1397 20.0916 61.0217 20.1535 60.9224 20.2396C60.9062 20.2536 60.896 20.2734 60.894 20.2947C60.892 20.3161 60.8984 20.3374 60.9118 20.3541C60.9225 20.3664 60.9365 20.3752 60.9521 20.3795Z" fill="#263238"/>
<path d="M68.6074 35.6775C68.6957 36.0851 68.8731 36.468 69.1268 36.799C69.3918 37.0894 70.1678 36.4131 71.1006 36.7332C72.0334 37.0534 72.2644 36.9664 72.3726 36.3453C72.4807 35.7241 72.4298 35.2408 72.2835 35.1136C72.1372 34.9864 68.476 35.2302 68.6074 35.6775Z" fill="#00205B"/>
<path d="M54.043 33.5723C53.7823 33.9348 53.4388 33.9794 53.3222 34.3164C53.1654 34.768 53.9816 35.298 54.0558 36.2796C54.13 37.2611 54.3017 37.4413 54.9186 37.3035C55.5355 37.1657 55.9574 36.9198 56.0146 36.7354C56.0719 36.5509 54.66 32.7116 54.043 33.5723Z" fill="#00205B"/>
<path d="M65.0077 48.7791H46.8584V49.3197H65.0077V48.7791Z" fill="#263238"/>
<path d="M78.5757 48.9741H29.9259V50.0574H78.5757V48.9741Z" fill="#00205B"/>
<path opacity="0.3" d="M78.5757 48.9741H73.7824V50.0574H78.5757V48.9741Z" fill="#263238"/>
<path d="M78.1114 50.0596H30.3902V88.2429H78.1114V50.0596Z" fill="#00205B"/>
<path opacity="0.8" d="M78.1114 50.0596H30.3902V88.2429H78.1114V50.0596Z" fill="white"/>
<path opacity="0.3" d="M78.1114 50.0596H74.2912V88.2429H78.1114V50.0596Z" fill="#00205B"/>
<g opacity="0.3">
<path d="M41.0602 88.2408H41.2276L41.2276 50.0574H41.0602L41.0602 88.2408Z" fill="#00205B"/>
<path d="M41.2276 88.2408H41.3951L41.3951 50.0574H41.2276L41.2276 88.2408Z" fill="white"/>
<path d="M74.2912 84.9696V85.1371H41.393L41.2255 84.9696H74.2912Z" fill="#00205B"/>
<path d="M41.393 85.135V85.3024H74.2912V85.135H41.393Z" fill="white"/>
</g>
<path opacity="0.3" d="M78.1114 50.0596H30.3902V50.5726L78.1114 51.0878V50.0596Z" fill="#00205B"/>
<path d="M31.3378 33.9836C31.4771 33.8462 31.6648 33.7692 31.8604 33.7692C32.056 33.7692 32.2438 33.8462 32.383 33.9836L37.6576 39.2603C37.796 39.399 37.8737 39.5869 37.8737 39.7829C37.8737 39.9788 37.796 40.1667 37.6576 40.3054C37.3714 40.5916 37.1763 40.3054 36.888 40.0277L32.4487 35.5884L31.3378 35.0288C31.1995 34.8901 31.1217 34.7021 31.1217 34.5062C31.1217 34.3102 31.1995 34.1223 31.3378 33.9836Z" fill="#263238"/>
<path d="M33.1165 35.6499C33.2067 35.6499 33.2798 35.5769 33.2798 35.4867C33.2798 35.3965 33.2067 35.3235 33.1165 35.3235C33.0264 35.3235 32.9533 35.3965 32.9533 35.4867C32.9533 35.5769 33.0264 35.6499 33.1165 35.6499Z" fill="white"/>
<path d="M35.2408 37.3799C35.2636 37.4027 35.2791 37.4318 35.2853 37.4634C35.2916 37.4951 35.2884 37.5279 35.276 37.5577C35.2636 37.5875 35.2427 37.613 35.2159 37.6309C35.189 37.6489 35.1575 37.6584 35.1252 37.6584C35.0929 37.6584 35.0614 37.6489 35.0346 37.6309C35.0077 37.613 34.9868 37.5875 34.9744 37.5577C34.9621 37.5279 34.9588 37.4951 34.9651 37.4634C34.9714 37.4318 34.9869 37.4027 35.0097 37.3799C35.0248 37.3647 35.0428 37.3526 35.0627 37.3444C35.0825 37.3362 35.1038 37.3319 35.1252 37.3319C35.1467 37.3319 35.1679 37.3362 35.1878 37.3444C35.2076 37.3526 35.2256 37.3647 35.2408 37.3799Z" fill="white"/>
<path d="M42.3682 44.1702L38.3402 48.849C35.2237 47.3798 32.7125 44.8761 31.234 41.764L35.9128 37.7254C35.9724 37.67 36.0508 37.6392 36.1322 37.6392C36.2136 37.6392 36.292 37.67 36.3516 37.7254L42.3767 43.7504C42.4261 43.8097 42.4524 43.8848 42.4509 43.9619C42.4493 44.039 42.42 44.113 42.3682 44.1702Z" fill="#00205B"/>
<path opacity="0.8" d="M42.3682 44.1702L38.3402 48.849C35.2237 47.3798 32.7125 44.8761 31.234 41.764L35.9128 37.7254C35.9724 37.67 36.0508 37.6392 36.1322 37.6392C36.2136 37.6392 36.292 37.67 36.3516 37.7254L42.3767 43.7504C42.4261 43.8097 42.4524 43.8848 42.4509 43.9619C42.4493 44.039 42.42 44.113 42.3682 44.1702Z" fill="white"/>
<path opacity="0.4" d="M32.7519 40.4454L31.2361 41.764C32.7103 44.8769 35.2167 47.3833 38.3296 48.8575L39.6376 47.3417C36.6336 45.8806 34.2084 43.4516 32.7519 40.4454Z" fill="#00205B"/>
<g opacity="0.6">
<path d="M36.729 38.0858L34.1532 45.9001C34.6014 46.3562 35.0803 46.7812 35.5863 47.1721L38.1303 39.485L36.729 38.0858Z" fill="white"/>
<path d="M38.9126 40.2673L36.4386 47.77C36.6866 47.9353 36.941 48.0965 37.2039 48.2491L39.608 40.9627L38.9126 40.2673Z" fill="white"/>
</g>
<path d="M44.2592 48.1071H32.5823C32.3527 48.1071 32.1325 48.1981 31.9699 48.3603C31.8074 48.5224 31.7158 48.7424 31.7152 48.972H45.1242C45.1236 48.7428 45.0323 48.5231 44.8702 48.361C44.7082 48.1989 44.4885 48.1076 44.2592 48.1071Z" fill="#00205B"/>
<path opacity="0.5" d="M44.2592 48.1071H32.5823C32.3527 48.1071 32.1325 48.1981 31.9699 48.3603C31.8074 48.5224 31.7158 48.7424 31.7152 48.972H45.1242C45.1236 48.7428 45.0323 48.5231 44.8702 48.361C44.7082 48.1989 44.4885 48.1076 44.2592 48.1071Z" fill="white"/>
<path opacity="0.5" d="M40.3606 48.1071H32.5823C32.3527 48.1071 32.1325 48.1981 31.9699 48.3603C31.8074 48.5224 31.7158 48.7424 31.7152 48.972H41.2255C41.225 48.7428 41.1337 48.5231 40.9716 48.361C40.8095 48.1989 40.5898 48.1076 40.3606 48.1071Z" fill="white"/>
<path opacity="0.4" d="M75.7158 41.6347L75.3596 41.2828C75.2748 41.1998 75.2071 41.101 75.1605 40.9918C75.114 40.8827 75.0894 40.7654 75.0883 40.6468V38.196C75.1004 38.198 75.1128 38.1973 75.1246 38.1939C75.1364 38.1906 75.1473 38.1848 75.1567 38.1768C75.166 38.1688 75.1735 38.159 75.1786 38.1478C75.1838 38.1367 75.1864 38.1246 75.1864 38.1123C75.1864 38.1 75.1838 38.0879 75.1786 38.0768C75.1735 38.0656 75.166 38.0557 75.1567 38.0478C75.1473 38.0398 75.1364 38.034 75.1246 38.0307C75.1128 38.0273 75.1004 38.0266 75.0883 38.0286H74.1724C74.1525 38.0317 74.1344 38.0419 74.1213 38.0573C74.1082 38.0726 74.101 38.0921 74.101 38.1123C74.101 38.1325 74.1082 38.152 74.1213 38.1673C74.1344 38.1827 74.1525 38.1929 74.1724 38.196V40.6383C74.1717 40.7568 74.1475 40.874 74.1013 40.9832C74.0551 41.0923 73.9878 41.1913 73.9032 41.2743L73.547 41.6262C73.3766 41.7942 73.2797 42.0229 73.2778 42.2622V48.8342C73.2775 48.8514 73.2807 48.8684 73.287 48.8843C73.2934 48.9003 73.3029 48.9148 73.3149 48.927C73.327 48.9392 73.3413 48.949 73.3571 48.9556C73.373 48.9622 73.39 48.9656 73.4071 48.9656H75.86C75.8771 48.9656 75.8941 48.9622 75.9099 48.9556C75.9258 48.949 75.9401 48.9392 75.9522 48.927C75.9642 48.9148 75.9737 48.9003 75.98 48.8843C75.9864 48.8684 75.9896 48.8514 75.9893 48.8342V42.2622C75.9831 42.0254 75.885 41.8004 75.7158 41.6347Z" fill="#00205B"/>
<path opacity="0.4" d="M73.4962 46.0528V48.548C73.4962 48.6042 73.5185 48.6581 73.5583 48.6979C73.598 48.7377 73.6519 48.76 73.7082 48.76H75.5504C75.6067 48.76 75.6606 48.7377 75.7003 48.6979C75.7401 48.6581 75.7624 48.6042 75.7624 48.548V45.9383C75.7636 45.8893 75.7478 45.8414 75.7177 45.8027C75.6875 45.7641 75.6449 45.737 75.5971 45.7263C75.277 45.6419 74.9387 45.6582 74.6282 45.7729C74.3468 45.8797 74.0402 45.9018 73.7463 45.8365C73.7151 45.8308 73.683 45.8321 73.6524 45.8405C73.6218 45.8488 73.5934 45.8639 73.5694 45.8846C73.5454 45.9054 73.5263 45.9313 73.5137 45.9604C73.501 45.9895 73.495 46.021 73.4962 46.0528Z" fill="#00205B"/>
<path d="M75.2939 43.371H73.9647C73.8675 43.371 73.7887 43.4498 73.7887 43.5469V46.0719C73.7887 46.169 73.8675 46.2478 73.9647 46.2478H75.2939C75.3911 46.2478 75.4699 46.169 75.4699 46.0719V43.5469C75.4699 43.4498 75.3911 43.371 75.2939 43.371Z" fill="white"/>
<path d="M70.6999 46.216C70.7274 46.0231 70.4137 45.8874 70.2017 45.898C70.0321 45.9089 69.8621 45.8829 69.7035 45.8217C69.8791 45.9404 70.0743 46.0273 70.2801 46.0782C70.4251 46.107 70.566 46.1533 70.6999 46.216Z" fill="#263238"/>
<path d="M70.6999 46.216C70.808 46.0528 70.5812 45.792 70.3861 45.7157C70.225 45.6546 70.0799 45.5574 69.9621 45.4316C70.069 45.6155 70.2084 45.7786 70.3734 45.9129C70.4942 46.0002 70.6039 46.102 70.6999 46.216Z" fill="#263238"/>
<path d="M70.7211 46.216C70.6766 46.0252 70.9797 45.8641 71.1896 45.8598C71.3602 45.8564 71.528 45.8159 71.6814 45.7411C71.5168 45.8748 71.3294 45.9775 71.1281 46.0443C70.986 46.0849 70.8493 46.1426 70.7211 46.216Z" fill="#263238"/>
<path d="M70.7211 46.216C70.6384 46.0401 70.8992 45.8175 71.1048 45.7687C71.2697 45.7322 71.4246 45.6598 71.5585 45.5567C71.426 45.7253 71.2644 45.8689 71.0815 45.9807C70.9522 46.0442 70.8312 46.1232 70.7211 46.216Z" fill="#263238"/>
<path d="M72.521 47.0746C72.4976 45.7432 71.3168 45.8789 70.6872 46.1609C70.0914 45.8174 68.6202 45.9934 68.6922 47.276C68.7389 48.1092 69.2053 48.7982 69.9791 48.972C70.1444 49.0102 70.5091 48.8745 70.6872 48.8745C70.8652 48.8745 71.0921 48.9847 71.2278 48.9678C72.0546 48.8575 72.5379 47.9438 72.521 47.0746Z" fill="#00205B"/>
</svg>
